<?xml version="1.0" encoding="UTF-8"?> <svg xmlns="http://www.w3.org/2000/svg" width="529" height="200" viewBox="0 0 529 200" fill="none"><path d="M474.075 86.2386L472.796 85.923C453.9 81.2313 443.21 77.9544 443.21 65.2205C443.21 54.5117 451.329 49.0836 467.35 49.0836C485.579 49.0836 495.04 56.6261 497.117 72.8157L497.36 74.7092H523.877L523.698 72.3792C521.5 43.7396 500.435 26.6401 467.344 26.6401C434.256 26.6401 416.792 41.4936 416.792 66.3776C416.792 95.2538 444.017 102.27 463.906 107.399L467.492 108.303C490.477 114.073 500.967 116.703 500.967 131.699C500.967 136.643 500.967 151.691 474.117 151.691C451.613 151.691 439.39 141.924 437.779 122.657L437.615 120.669H411.277L411.377 122.931C412.735 154.037 437.588 174.135 474.698 174.135C507.808 174.135 527.575 157.84 527.575 130.542C527.575 99.7563 500.375 92.8871 474.075 86.2438V86.2386Z" fill="black"></path><path d="M391.408 47.9162C380.404 35.7556 364.235 29.3281 344.652 29.3281H289.842V171.426H345.038C385.281 171.426 408.363 145.564 408.363 100.472C408.363 78.0283 402.66 60.3451 391.402 47.9162H391.408ZM315.483 51.9662H343.686C369.433 51.9662 381.952 67.8349 381.952 100.472C381.952 133.109 369.433 148.788 343.686 148.788H315.483V51.9662Z" fill="black"></path><path d="M201.315 148.788V109.387H264.598V86.7491H201.315V51.9714H277.942V29.3281H175.674V171.426H279.881V148.788H201.315Z" fill="black"></path><path d="M73.4385 39.7227L6.35303 106.52L26.2994 126.381L93.3848 59.5834L73.4385 39.7227Z" fill="black"></path><path d="M33.5427 0L0 33.3987L19.9463 53.2592L53.489 19.8606L33.5427 0Z" fill="black"></path><path d="M113.33 79.4458L12.7021 179.642L32.6484 199.502L133.277 99.3064L113.33 79.4458Z" fill="black"></path></svg> 